
                    <svg xmlns="http://www.w3.org/2000/svg" viewBox="0 0 40 40" width="40" height="40"
                        preserveAspectRatio="xMidYMid"
                        style="width: 100%; height: 100%; transform: translate3d(0px, 0px, 0px);">
                        <defs>
                            <clipPath id="__lottie_element_10">
                                <rect width="40" height="40" x="0" y="0"></rect>
                            </clipPath>
                        </defs>
                        <g clip-path="url(#__lottie_element_10)">
                            <g transform="matrix(1,0,0,1,10,15)" opacity="1" style="display: block;">
                                <g opacity="1" transform="matrix(1,0,0,1,15.112000465393066,5.099999904632568)">
                                    <path fill="rgb(255,255,255)" fill-opacity="1"
                                        d=" M-3.9240000247955322,4.5 C-3.9240000247955322,4.5 3.9240000247955322,0 3.9240000247955322,0 C3.9240000247955322,0 -3.9240000247955322,-4.5 -3.9240000247955322,-4.5 C-3.9240000247955322,-4.5 -3.9240000247955322,4.5 -3.9240000247955322,4.5z">
                                    </path>
                                </g>
                                <g opacity="1" transform="matrix(1,0,0,1,5.611999988555908,5.10099983215332)">
                                    <path fill="rgb(255,255,255)" fill-opacity="1"
                                        d=" M-5.576000213623047,2.0999999046325684 C-5.576000213623047,2.0999999046325684 5.576000213623047,0.8999999761581421 5.576000213623047,0.8999999761581421 C5.576000213623047,0.8999999761581421 5.576000213623047,-0.8999999761581421 5.576000213623047,-0.8999999761581421 C5.576000213623047,-0.8999999761581421 -5.576000213623047,-2.0999999046325684 -5.576000213623047,-2.0999999046325684 C-5.576000213623047,-2.0999999046325684 -5.576000213623047,2.0999999046325684 -5.576000213623047,2.0999999046325684z">
                                    </path>
                                </g>
                            </g>
                            <g transform="matrix(3.5899999141693115,0,0,3.5899999141693115,-15.89999771118164,2.0500011444091797)"
                                opacity="1" style="display: block;">
                                <g opacity="1" transform="matrix(1,0,0,1,15.112000465393066,5.099999904632568)">
                                    <path fill="rgb(255,255,255)" fill-opacity="1"
                                        d=" M-31.048999786376953,4.5 C-31.048999786376953,4.5 -30.701000213623047,0 -30.701000213623047,0 C-30.701000213623047,0 -31.173999786376953,-4.5 -31.173999786376953,-4.5 C-31.173999786376953,-4.5 -31.048999786376953,4.5 -31.048999786376953,4.5z">
                                    </path>
                                </g>
                                <g opacity="1" transform="matrix(1,0,0,1,5.611999988555908,5.10099983215332)">
                                    <path fill="rgb(255,255,255)" fill-opacity="1"
                                        d=" M-24.826000213623047,2.0739998817443848 C-24.826000213623047,2.0739998817443848 -23.173999786376953,0.9729999899864197 -23.173999786376953,0.9729999899864197 C-23.173999786376953,0.9729999899864197 -22.923999786376953,-0.8769999742507935 -22.923999786376953,-0.8769999742507935 C-22.923999786376953,-0.8769999742507935 -24.826000213623047,-2.125 -24.826000213623047,-2.125 C-24.826000213623047,-2.125 -24.826000213623047,2.0739998817443848 -24.826000213623047,2.0739998817443848z">
                                    </path>
                                </g>
                            </g>
                        </g>
                    </svg>